<svg width="21" height="20" viewBox="0 0 21 20" fill="none" xmlns="http://www.w3.org/2000/svg">
<path d="M10.3339 2C8.16119 2 7.88852 2.0095 7.03518 2.04833C6.1835 2.08733 5.60216 2.22217 5.09349 2.42C4.56732 2.62433 4.12098 2.89767 3.67631 3.3425C3.2313 3.78717 2.95797 4.2335 2.75296 4.7595C2.55463 5.26833 2.41963 5.84983 2.38129 6.70117C2.34329 7.5545 2.33329 7.82733 2.33329 10C2.33329 12.1727 2.34296 12.4445 2.38163 13.2978C2.42079 14.1495 2.55563 14.7308 2.7533 15.2395C2.9578 15.7657 3.23114 16.212 3.67597 16.6567C4.12048 17.1017 4.56682 17.3757 5.09266 17.58C5.60166 17.7778 6.18317 17.9127 7.03468 17.9517C7.88802 17.9905 8.16052 18 10.333 18C12.5059 18 12.7777 17.9905 13.6311 17.9517C14.4828 17.9127 15.0648 17.7778 15.5738 17.58C16.0998 17.3757 16.5454 17.1017 16.9899 16.6567C17.435 16.212 17.7083 15.7657 17.9133 15.2397C18.11 14.7308 18.245 14.1493 18.285 13.298C18.3233 12.4447 18.3333 12.1727 18.3333 10C18.3333 7.82733 18.3233 7.55467 18.285 6.70133C18.245 5.84967 18.11 5.26833 17.9133 4.75967C17.7083 4.2335 17.435 3.78717 16.9899 3.3425C16.5449 2.8975 16.0999 2.62417 15.5733 2.42C15.0633 2.22217 14.4816 2.08733 13.6299 2.04833C12.7766 2.0095 12.5049 2 10.3315 2H10.3339ZM9.6162 3.44167C9.82921 3.44133 10.0669 3.44167 10.3339 3.44167C12.4699 3.44167 12.7231 3.44933 13.5666 3.48767C14.3466 3.52333 14.7699 3.65367 15.0519 3.76317C15.4253 3.90817 15.6914 4.0815 15.9713 4.3615C16.2513 4.6415 16.4246 4.90817 16.5699 5.2815C16.6794 5.56317 16.8099 5.9865 16.8454 6.7665C16.8838 7.60983 16.8921 7.86317 16.8921 9.99817C16.8921 12.1332 16.8838 12.3865 16.8454 13.2298C16.8098 14.0098 16.6794 14.4332 16.5699 14.7148C16.4249 15.0882 16.2513 15.354 15.9713 15.6338C15.6913 15.9138 15.4254 16.0872 15.0519 16.2322C14.7703 16.3422 14.3466 16.4722 13.5666 16.5078C12.7232 16.5462 12.4699 16.5545 10.3339 16.5545C8.19769 16.5545 7.94452 16.5462 7.10118 16.5078C6.32117 16.4718 5.89783 16.3415 5.61566 16.232C5.24232 16.087 4.97566 15.9137 4.69565 15.6337C4.41565 15.3537 4.24231 15.0877 4.09698 14.7142C3.98748 14.4325 3.85698 14.0092 3.82148 13.2292C3.78314 12.3858 3.77548 12.1325 3.77548 9.99617C3.77548 7.85983 3.78314 7.60783 3.82148 6.7645C3.85714 5.9845 3.98748 5.56117 4.09698 5.27917C4.24198 4.90583 4.41565 4.63917 4.69565 4.35917C4.97566 4.07917 5.24232 3.90583 5.61566 3.7605C5.89766 3.6505 6.32117 3.5205 7.10118 3.48467C7.83918 3.45133 8.12519 3.44133 9.6162 3.43967V3.44167Z" fill="url(#paint0_radial_2_1223)"/>
<path d="M14.5871 4.75035C14.3972 4.75035 14.2115 4.80666 14.0537 4.91216C13.8958 5.01766 13.7727 5.16761 13.7001 5.34305C13.6274 5.51849 13.6084 5.71153 13.6455 5.89776C13.6826 6.08399 13.774 6.25504 13.9083 6.38929C14.0426 6.52353 14.2137 6.61494 14.4 6.65194C14.5862 6.68895 14.7793 6.66989 14.9547 6.59718C15.1301 6.52447 15.28 6.40137 15.3854 6.24345C15.4909 6.08554 15.5471 5.8999 15.5471 5.71002C15.5471 5.18002 15.1171 4.75002 14.5871 4.75002V4.75035Z" fill="url(#paint1_radial_2_1223)"/>
<path fill-rule="evenodd" clip-rule="evenodd" d="M10.3167 5.87201C8.04782 5.87201 6.2083 7.71151 6.2083 9.98035C6.2083 12.2492 8.04782 14.0878 10.3167 14.0878C12.5855 14.0878 14.4246 12.2492 14.4246 9.98035C14.4246 7.71151 12.5855 5.87201 10.3167 5.87201ZM10.3333 12.625C11.783 12.625 12.9583 11.4498 12.9583 10C12.9583 8.55027 11.783 7.37502 10.3333 7.37502C8.88355 7.37502 7.7083 8.55027 7.7083 10C7.7083 11.4498 8.88355 12.625 10.3333 12.625Z" fill="url(#paint2_radial_2_1223)"/>
<path d="M10.3339 2C8.16119 2 7.88852 2.0095 7.03518 2.04833C6.1835 2.08733 5.60216 2.22217 5.09349 2.42C4.56732 2.62433 4.12098 2.89767 3.67631 3.3425C3.2313 3.78717 2.95797 4.2335 2.75296 4.7595C2.55463 5.26833 2.41963 5.84983 2.38129 6.70117C2.34329 7.5545 2.33329 7.82733 2.33329 10C2.33329 12.1727 2.34296 12.4445 2.38163 13.2978C2.42079 14.1495 2.55563 14.7308 2.7533 15.2395C2.9578 15.7657 3.23114 16.212 3.67597 16.6567C4.12048 17.1017 4.56682 17.3757 5.09266 17.58C5.60166 17.7778 6.18317 17.9127 7.03468 17.9517C7.88802 17.9905 8.16052 18 10.333 18C12.5059 18 12.7777 17.9905 13.6311 17.9517C14.4828 17.9127 15.0648 17.7778 15.5738 17.58C16.0998 17.3757 16.5454 17.1017 16.9899 16.6567C17.435 16.212 17.7083 15.7657 17.9133 15.2397C18.11 14.7308 18.245 14.1493 18.285 13.298C18.3233 12.4447 18.3333 12.1727 18.3333 10C18.3333 7.82733 18.3233 7.55467 18.285 6.70133C18.245 5.84967 18.11 5.26833 17.9133 4.75967C17.7083 4.2335 17.435 3.78717 16.9899 3.3425C16.5449 2.8975 16.0999 2.62417 15.5733 2.42C15.0633 2.22217 14.4816 2.08733 13.6299 2.04833C12.7766 2.0095 12.5049 2 10.3315 2H10.3339ZM9.6162 3.44167C9.82921 3.44133 10.0669 3.44167 10.3339 3.44167C12.4699 3.44167 12.7231 3.44933 13.5666 3.48767C14.3466 3.52333 14.7699 3.65367 15.0519 3.76317C15.4253 3.90817 15.6914 4.0815 15.9713 4.3615C16.2513 4.6415 16.4246 4.90817 16.5699 5.2815C16.6794 5.56317 16.8099 5.9865 16.8454 6.7665C16.8838 7.60983 16.8921 7.86317 16.8921 9.99817C16.8921 12.1332 16.8838 12.3865 16.8454 13.2298C16.8098 14.0098 16.6794 14.4332 16.5699 14.7148C16.4249 15.0882 16.2513 15.354 15.9713 15.6338C15.6913 15.9138 15.4254 16.0872 15.0519 16.2322C14.7703 16.3422 14.3466 16.4722 13.5666 16.5078C12.7232 16.5462 12.4699 16.5545 10.3339 16.5545C8.19769 16.5545 7.94452 16.5462 7.10118 16.5078C6.32117 16.4718 5.89783 16.3415 5.61566 16.232C5.24232 16.087 4.97566 15.9137 4.69565 15.6337C4.41565 15.3537 4.24231 15.0877 4.09698 14.7142C3.98748 14.4325 3.85698 14.0092 3.82148 13.2292C3.78314 12.3858 3.77548 12.1325 3.77548 9.99617C3.77548 7.85983 3.78314 7.60783 3.82148 6.7645C3.85714 5.9845 3.98748 5.56117 4.09698 5.27917C4.24198 4.90583 4.41565 4.63917 4.69565 4.35917C4.97566 4.07917 5.24232 3.90583 5.61566 3.7605C5.89766 3.6505 6.32117 3.5205 7.10118 3.48467C7.83918 3.45133 8.12519 3.44133 9.6162 3.43967V3.44167Z" fill="url(#paint3_radial_2_1223)"/>
<path d="M14.5871 4.75035C14.3972 4.75035 14.2115 4.80666 14.0537 4.91216C13.8958 5.01766 13.7727 5.16761 13.7001 5.34305C13.6274 5.51849 13.6084 5.71153 13.6455 5.89776C13.6826 6.08399 13.774 6.25504 13.9083 6.38929C14.0426 6.52353 14.2137 6.61494 14.4 6.65194C14.5862 6.68895 14.7793 6.66989 14.9547 6.59718C15.1301 6.52447 15.28 6.40137 15.3854 6.24345C15.4909 6.08554 15.5471 5.8999 15.5471 5.71002C15.5471 5.18002 15.1171 4.75035 14.5871 4.75035Z" fill="url(#paint4_radial_2_1223)"/>
<path fill-rule="evenodd" clip-rule="evenodd" d="M10.3167 5.87201C8.04782 5.87201 6.2083 7.71151 6.2083 9.98035C6.2083 12.2492 8.04782 14.0878 10.3167 14.0878C12.5855 14.0878 14.4246 12.2492 14.4246 9.98035C14.4246 7.71151 12.5855 5.87201 10.3167 5.87201ZM10.3333 12.625C11.783 12.625 12.9583 11.4498 12.9583 10C12.9583 8.55027 11.783 7.37502 10.3333 7.37502C8.88355 7.37502 7.7083 8.55027 7.7083 10C7.7083 11.4498 8.88355 12.625 10.3333 12.625Z" fill="url(#paint5_radial_2_1223)"/>
<defs>
<radialGradient id="paint0_radial_2_1223" cx="0" cy="0" r="1" gradientUnits="userSpaceOnUse" gradientTransform="translate(6.58331 19.2323) rotate(-90) scale(15.8572 14.7484)">
<stop stop-color="#FFDD55"/>
<stop offset="0.1" stop-color="#FFDD55"/>
<stop offset="0.5" stop-color="#FF543E"/>
<stop offset="1" stop-color="#C837AB"/>
</radialGradient>
<radialGradient id="paint1_radial_2_1223" cx="0" cy="0" r="1" gradientUnits="userSpaceOnUse" gradientTransform="translate(6.58331 19.2323) rotate(-90) scale(15.8572 14.7484)">
<stop stop-color="#FFDD55"/>
<stop offset="0.1" stop-color="#FFDD55"/>
<stop offset="0.5" stop-color="#FF543E"/>
<stop offset="1" stop-color="#C837AB"/>
</radialGradient>
<radialGradient id="paint2_radial_2_1223" cx="0" cy="0" r="1" gradientUnits="userSpaceOnUse" gradientTransform="translate(6.58331 19.2323) rotate(-90) scale(15.8572 14.7484)">
<stop stop-color="#FFDD55"/>
<stop offset="0.1" stop-color="#FFDD55"/>
<stop offset="0.5" stop-color="#FF543E"/>
<stop offset="1" stop-color="#C837AB"/>
</radialGradient>
<radialGradient id="paint3_radial_2_1223" cx="0" cy="0" r="1" gradientUnits="userSpaceOnUse" gradientTransform="translate(-0.346791 3.15261) rotate(78.6806) scale(7.08823 29.218)">
<stop stop-color="#3771C8"/>
<stop offset="0.128" stop-color="#3771C8"/>
<stop offset="1" stop-color="#6600FF" stop-opacity="0"/>
</radialGradient>
<radialGradient id="paint4_radial_2_1223" cx="0" cy="0" r="1" gradientUnits="userSpaceOnUse" gradientTransform="translate(-0.346791 3.15261) rotate(78.6806) scale(7.08823 29.218)">
<stop stop-color="#3771C8"/>
<stop offset="0.128" stop-color="#3771C8"/>
<stop offset="1" stop-color="#6600FF" stop-opacity="0"/>
</radialGradient>
<radialGradient id="paint5_radial_2_1223" cx="0" cy="0" r="1" gradientUnits="userSpaceOnUse" gradientTransform="translate(-0.346791 3.15261) rotate(78.6806) scale(7.08823 29.218)">
<stop stop-color="#3771C8"/>
<stop offset="0.128" stop-color="#3771C8"/>
<stop offset="1" stop-color="#6600FF" stop-opacity="0"/>
</radialGradient>
</defs>
</svg>
